<svg xmlns="http://www.w3.org/2000/svg" width="73" height="24" viewBox="0 0 73 24"><g fill="none" fill-rule="evenodd"><path fill="#999" d="M55.726 22.74c.185 0 .185-.338.185-.755 0-.416 0-.754-.185-.754-.184 0-.184.338-.184.754 0 .417 0 .755.184.755zm.374-2.233c.065-.1-.01-.245-.165-.372-.156-.126-.327-.189-.399-.085-.072.104.01.246.166.372.156.127.334.186.399.085zm1.409 2.233c.184 0 .184-.338.184-.755 0-.416 0-.754-.184-.754-.185 0-.185.338-.185.754 0 .417 0 .755.185.755zm.34-2.26c.064-.1-.006-.242-.156-.364-.15-.121-.316-.18-.388-.076-.072.103.006.242.156.363.15.122.323.177.388.077zm-13.506 3.083c-.16.254-.467.11-.467-.119-.028-.299-.014-.765 0-1.195.013-.434.025-.832.168-.993.313-.402.91-.462 1.271-.18.362.283.4.837.087 1.239-.249.318-.616.488-.95.387-.087-.027.052.608-.109.861zm.157-1.232c.156.08.399-.085.542-.367.144-.282.134-.575-.022-.655-.156-.08-.399.085-.542.368-.144.282-.134.575.022.654zm15.34-2.304c.075-.297.48-.018.436.206-.03.299-.102.96-.197 1.38a1.635 1.635 0 0 1-.542.876c-.384.335-.82.439-1.122.092-.3-.346-.22-.679.117-1.152.219-.306.76-.534 1.067-.37.081.042.165-.736.24-1.032zm-.358 1.386c-.138-.108-.407.007-.602.256-.195.25-.242.54-.104.648.138.107.408-.008.603-.257.195-.25.241-.54.103-.647zm4.915-1.411c.076-.297.48-.017.436.206-.03.299-.101.96-.196 1.38a1.635 1.635 0 0 1-.542.877c-.385.334-.821.438-1.122.092-.301-.347-.22-.68.117-1.153.218-.306.759-.533 1.067-.37.08.042.164-.735.24-1.032zm-.357 1.386c-.138-.108-.408.007-.603.257s-.241.54-.103.647c.138.108.408-.007.603-.257s.24-.54.103-.647zm-9.855-1.358l-.122 1.18c.749-.296 1.107-.111 1.076.553-.047.998-.766.992-.954.992-.317-.07-.46-.29-.122-.349.617-.04.842-.487.767-.735-.07-.317-.39-.304-.526-.114-.075.104-.144.292-.24.375-.26.225-.36-.087-.397-.432-.038-.345.095-1.32.136-1.434.04-.114.086-.233.24-.233.101 0 .148.066.142.198zm-10.923 2.61c-.152.162-.572.123-.713.094-.141-.029-.337-.18-.177-.306.16-.127.439.113.523-.088.103-.111-.933-.899-.379-1.289.432-.274.765-.036.867.038.102.073.04.25-.06.25-.102 0-.128-.058-.256-.078-.128-.02-.306-.021-.375.149-.047.113.121.36.503.74.147.219.169.383.067.49zm7.435 0c-.153.162-.573.123-.714.094-.141-.029-.337-.18-.177-.306.16-.127.439.113.523-.088.103-.111-.933-.899-.378-1.289.432-.274.765-.036.866.038.102.073.04.25-.06.25-.102 0-.128-.058-.255-.078-.128-.02-.307-.021-.376.149-.047.113.121.36.503.74.147.219.17.383.068.49zm-9.072-.498c-.16.081-.358.14-.548.106-.036-.007.043.158.316.225.269.066.634-.053.634.164s-.7.163-.78.15a.87.87 0 0 1-.749-.832c0-.234.104-.625.509-.84.405-.216.862-.149 1.02.15.159.297-.057.702-.402.877zm-.223-.306c.19-.073.312-.217.272-.321-.04-.105-.227-.13-.418-.057-.19.073-.312.217-.272.321.04.105.227.13.418.057zm-2.466-.399c-.042.037-.049.42-.021 1.15.047.102.142.153.285.153s.235-.051.276-.154c.039-.444.111-.74.218-.891.107-.15.367-.323.78-.518.035-.108.035-.182 0-.222-.033-.04-.123-.069-.267-.088-.248.084-.42.161-.513.23a1.5 1.5 0 0 0-.307.34c-.259-.038-.409-.038-.45 0zm-2.844-.114c-.06.048-.085.435-.085.646 0 .211.046.57.146.69.1.122.247.077.317-.09.03-.07-.028-.313.094-.6.063-.146.25-.498.536-.332.285.167-.036 1.023.118 1.096.154.072.428-.403.407-.83-.021-.427-.175-.607-.467-.725-.291-.117-.726.211-.788.221-.062.01-.027-.054-.107-.076-.079-.022-.11-.048-.17 0zm11.786 0c-.06.048-.085.435-.085.646 0 .211.046.57.146.69.1.122.247.077.317-.09.03-.07-.028-.313.094-.6.063-.146.25-.498.536-.332.285.167-.036 1.023.118 1.096.155.072.428-.403.407-.83-.021-.427-.175-.607-.467-.725-.291-.117-.726.211-.788.221-.062.01-.027-.054-.106-.076-.08-.022-.11-.048-.172 0zm-12.985 1.442a.847.847 0 1 1 0-1.694.847.847 0 0 1 0 1.694zm-.308-.423c.21.153.518.087.688-.148.17-.234.139-.548-.071-.7-.21-.153-.519-.087-.69.148-.17.234-.137.548.073.7zm12.12.423a.847.847 0 1 1 0-1.694.847.847 0 0 1 0 1.694zm-.309-.423c.21.153.519.087.689-.148.17-.234.138-.548-.072-.7-.21-.153-.518-.087-.688.148-.17.234-.139.548.071.7zm-12.689.246c0-.316-.885-.032-.885-.691 0-.659.925-.265.959-.575.034-.31-1.501-.478-1.45.514.05.992 1.376 1.068 1.376.752zm-5.477.128c-.46 0-.747-.42-.747-.88 0-.458.554-.76 1.013-.76.459 0 .752.302.752.76 0 .02 0 .193.089.352.102.182.305.323.31.353.033.262-.234.253-.443.219-.021-.004-.35-.268-.365-.256-.185.13-.407.212-.61.212zm-.132-.455c.169.114.421.036.564-.176.143-.211.121-.475-.048-.589-.17-.114-.422-.035-.564.176-.143.212-.121.475.048.59zm23.665.461c-.459 0-.747-.42-.747-.88 0-.458.555-.76 1.014-.76.459 0 .752.302.752.76 0 .02 0 .193.088.352.102.182.306.323.31.353.034.262-.234.253-.443.219-.02-.004-.226-.284-.334-.259-.107.025-.437.215-.64.215zm-.132-.454c.17.114.422.035.565-.177.142-.21.12-.475-.048-.589-.17-.114-.422-.035-.565.176-.142.212-.12.476.048.59zm9.459.44c-.458 0-.746-.42-.746-.879s.554-.761 1.013-.761c.46 0 .752.302.752.761 0 .02 0 .192.089.352.102.181.305.323.31.352.034.263-.234.253-.443.219-.021-.004-.35-.267-.365-.256-.185.13-.407.212-.61.212zm-.131-.454c.169.114.422.035.564-.176.143-.212.121-.475-.048-.59-.169-.114-.422-.035-.564.177-.143.211-.121.475.048.589zm-31.095-.788c-.042.038-.05.42-.022 1.15.047.102.143.153.286.153s.235-.051.275-.154c.039-.443.112-.74.219-.891.106-.15.366-.323.78-.517.034-.109.034-.183 0-.223-.034-.04-.123-.069-.268-.088-.248.084-.419.161-.512.23a1.5 1.5 0 0 0-.308.34c-.258-.037-.408-.037-.45 0zm-3.399 2.258c-.222-.04-.203-.18-.122-.24.081-.058.502.141.6-.084.097-.225.012-.693-.054-.864-.31.24-.82.205-.994-.22-.174-.425-.041-.901.395-1.121.436-.22.652.062.785.376.166.321.326 1.7.242 1.967-.083.269-.63.225-.852.186zm-.095-1.374c.17.04.347-.1.396-.312.049-.212-.05-.415-.219-.454-.169-.04-.346.1-.395.312-.049.212.049.415.218.454zm-1.767.403c.895.081 1.165-1.663.704-1.663-.386.058-.117 1.274-.704 1.29-.601 0-.36-1.151-.69-1.1-.383.11-.228 1.47.69 1.473zm-1.526-2.076a.243.243 0 1 1 0-.486.243.243 0 0 1 0 .486zm-.243.987c.057-.249.142-.373.256-.373.172 0 .248.101.276.294.029.192-.184.732-.183 1.093.002.386.164.637.164.828 0 .488-.513.444-.513-.132v-1.71z"/><circle cx="66.32" cy="7.071" r="6.889" fill="#999"/><path fill="#FFF" d="M68.852 6.301a.883.883 0 0 0-.337-.351.971.971 0 0 0-.514-.137c-.088 0-.177.01-.266.03a.724.724 0 0 0-.237.096.522.522 0 0 0-.166.17.461.461 0 0 0-.063.244c0 .163.067.287.2.373.133.087.343.16.629.219.409.083.71.205.906.366.194.16.292.376.292.647 0 .197-.038.364-.115.5a.998.998 0 0 1-.3.332 1.21 1.21 0 0 1-.417.185 2.021 2.021 0 0 1-.47.055c-.261 0-.515-.054-.762-.162a1.41 1.41 0 0 1-.606-.51l.4-.297c.088.153.219.281.391.385.173.104.363.155.57.155.108 0 .212-.01.31-.03a.714.714 0 0 0 .26-.103.565.565 0 0 0 .177-.188.56.56 0 0 0 .066-.285c0-.183-.087-.32-.262-.41a3.432 3.432 0 0 0-.758-.256 4.562 4.562 0 0 1-.33-.092 1.13 1.13 0 0 1-.321-.163.885.885 0 0 1-.244-.27.789.789 0 0 1-.097-.407c0-.177.035-.329.104-.455a.908.908 0 0 1 .277-.31c.116-.082.248-.142.396-.181.148-.04.3-.06.459-.06.241 0 .475.055.702.163.227.109.397.261.51.459l-.384.288zm-3.162.042a1.264 1.264 0 0 0-.705-.527c-.282-.08-.578-.023-.887.17-.144.09-.26.2-.35.33a1.248 1.248 0 0 0-.217.869c.017.15.062.292.133.424l2.026-1.266zm.526-.134l.06.095c.02.034.04.071.06.112l-2.464 1.54c.096.146.213.267.35.364a1.248 1.248 0 0 0 .931.218c.167-.025.327-.085.48-.18a2.17 2.17 0 0 0 .457-.402l.37.193c-.234.282-.433.475-.597.577a1.87 1.87 0 0 1-.687.265c-.237.04-.467.032-.69-.023a1.827 1.827 0 0 1-.63-.295 1.912 1.912 0 0 1-.507-.55 1.959 1.959 0 0 1-.275-.693 1.722 1.722 0 0 1 .797-1.805c.234-.146.464-.235.69-.268.227-.033.442-.02.644.04.201.059.389.158.561.298.173.14.323.31.45.514z"/><path fill="#999" d="M58.957 8.492c.167 1.412.89 2.733 2.168 3.963S63.56 14.3 64.598 14.3v3.608h-2.925l-2.716-4.449v4.449H56.09V8.492h2.867zm-9.766 9.493h5.426l.636-2.635h-3.054v-.908h1.851v-2.419h-1.851v-.883h2.795l-.541-2.63h-5.262z"/><circle cx="62.308" cy="8.585" r="1" fill="#FFF"/><path fill="#999" d="M47.908 17.908l-3.041.183V8.723l3.041-.216zm-5.91 0h-5.352V8.585h4.503c1.453.042 2.29.651 2.513 1.828.223 1.177-.133 2.078-1.068 2.702.932.494 1.365 1.338 1.3 2.533-.084 1.282-.716 2.035-1.896 2.26zm-1.838-5.486c.484-.043.726-.325.726-.844 0-.519-.242-.8-.726-.844h-.745v1.688h.745zm.103 3.495c.515-.048.772-.355.772-.922 0-.567-.257-.874-.772-.922h-.792v1.844h.792zm-9.273 1.991l1.076-.046v-4.889c.094-1.121.467-1.965 1.118-2.532.65-.567 1.262-.841 1.833-.822l.38-1.027a3.27 3.27 0 0 0-1.837.44c-.574.329-1.088.827-1.54 1.493V8.753l-1.03.2v8.955zm-2.79-.835c-.765.601-1.785.88-3.06.835-.483-.058-1.392-.195-2.123-1.345-.73-1.15-.514-2.3-.403-2.758.112-.458.677-1.848 2.525-2.194 1.232-.232 2.243.065 3.033.89.018-.825.018-1.39 0-1.697-.025-.46-.39-.754-.685-.946-1.083-.434-2.411-.311-3.986.37l.294-1.095c1.446-.439 2.667-.53 3.662-.271.996.257 1.555.905 1.677 1.942v7.104l-.934.196v-1.031zm-2.342.016a2.317 2.317 0 1 0 0-4.634 2.317 2.317 0 0 0 0 4.634zm-7.45-8.348c.917-.023 1.568-.058 1.953-.105.613-.076 1.214-.35 1.329-.253.115.096-.31.968-.419 1.05-.05.037-.411.084-1.087.14.713.593 1.155 1.422 1.155 2.34 0 1.206-.763 2.258-1.897 2.821 1.264.619 2.115 1.776 2.115 3.103 0 1.976-1.89 3.578-4.22 3.578-1.865 0-3.448-1.026-4.005-2.45.507-.32.828-.522.962-.605.305 1.147 1.738 1.968 3.164 1.968 1.658 0 3.001-1.154 3.001-2.578 0-1.425-1.343-2.58-3-2.58-.846 0-1.78.267-2.19.584-.245.19-.184-.183.185-1.12-1.028-.584-1.707-1.584-1.707-2.72 0-1.8 1.7-3.258 3.796-3.258.298 0 .587.03.865.085zm-1.311 5.523a5.052 5.052 0 0 1 .734.018c1.372-.125 2.441-1.138 2.441-2.369 0-1.315-1.222-2.381-2.729-2.381-1.507 0-2.728 1.066-2.728 2.381 0 1.183.987 2.165 2.282 2.35zm-4.635-5.31v9.01h-.983v-1.33c-1.078 1.304-2.288 1.785-3.63 1.445-1.342-.34-2.143-1.28-2.403-2.817V8.954h.917v6.016c.18 1.54.987 2.31 2.418 2.31 1.43 0 2.33-.77 2.698-2.31V8.954h.983zm-8.648 9.672c-.116.819-.445 1.469-.987 1.95-.542.481-1.359.654-2.45.517l-.255-.93c.715.218 1.345.141 1.889-.229s.816-.855.816-1.453V8.954h.987v9.672zm52.87 4.092c.231 0 .231-.608.231-1.358 0-.75 0-1.358-.23-1.358-.232 0-.232.608-.232 1.358 0 .75 0 1.358.231 1.358z"/></g></svg>