<svg width="26" height="24" viewBox="0 0 26 24" xmlns="http://www.w3.org/2000/svg">
  <g fill="none" fill-rule="evenodd">
    <path d="M12.92 23.93a13 13 0 0 0 10.06-4.64 11.47 11.47 0 0 0 2.67-7.32C25.65 5.36 19.95 0 12.92 0S.19 5.36.19 11.97c0 6.6 5.7 11.96 12.73 11.96z" fill="#999"/>
    <path d="M12.3 17.4a2.2 2.2 0 0 1 2.3-2.28c.67 0 1.23.22 1.67.65.43.44.64.99.64 1.64a2.24 2.24 0 0 1-2.33 2.31c-.43 0-.83-.1-1.2-.3-.36-.21-.63-.5-.81-.87a2.57 2.57 0 0 1-.28-1.15zm.73 0c0 .5.14.9.43 1.24.29.33.66.5 1.13.5.46 0 .84-.18 1.14-.51.3-.34.45-.75.45-1.22 0-.48-.16-.88-.46-1.2-.3-.33-.68-.5-1.14-.5-.46 0-.83.16-1.12.49-.29.32-.43.72-.43 1.2z" fill="#999"/>
    <path d="M12.3 17.4c0 .4.09.78.27 1.15.18.37.45.66.81.86.37.21.77.31 1.2.31a2.24 2.24 0 0 0 2.34-2.31 2.24 2.24 0 0 0-2.33-2.3 2.2 2.2 0 0 0-2.3 2.29zm-.23 0a2.43 2.43 0 0 1 2.52-2.51c.74 0 1.36.24 1.84.72.47.48.71 1.09.71 1.8a2.46 2.46 0 0 1-2.56 2.54c-.47 0-.91-.11-1.3-.34-.41-.23-.72-.55-.92-.96-.2-.4-.3-.82-.3-1.25zm.96 0c0 .5.14.9.43 1.24.29.33.66.5 1.13.5.46 0 .84-.18 1.14-.51.3-.34.45-.75.45-1.22 0-.48-.16-.88-.46-1.2-.3-.33-.68-.5-1.14-.5-.46 0-.83.16-1.12.49-.29.32-.43.72-.43 1.2zm-.23 0c0-.53.17-.99.5-1.36.33-.37.76-.56 1.28-.56s.96.2 1.31.57c.34.37.51.83.51 1.36a2 2 0 0 1-.5 1.37c-.34.38-.78.58-1.31.58s-.97-.2-1.3-.57a2.05 2.05 0 0 1-.49-1.39z" fill="#2B2B2B" fill-rule="nonzero"/>
    <path d="M10.77 18.28l.7-.12c.03.3.14.52.31.68.18.16.43.24.74.24.32 0 .56-.07.71-.21.16-.14.24-.3.24-.5 0-.16-.07-.3-.21-.4-.1-.06-.33-.14-.71-.25a6.17 6.17 0 0 1-1.06-.35c-.2-.1-.35-.25-.45-.42-.1-.18-.15-.38-.15-.6a1.2 1.2 0 0 1 .9-1.17 2.23 2.23 0 0 1 1.45.06c.25.1.43.23.55.4.11.17.2.4.23.68l-.67.1a.82.82 0 0 0-.27-.53.93.93 0 0 0-.63-.19c-.32 0-.55.06-.68.17a.5.5 0 0 0-.2.4c0 .1.02.18.08.26.05.08.14.15.26.2l.62.19c.49.14.83.26 1.03.35.19.09.34.22.45.39a1.32 1.32 0 0 1-.62 1.85 2 2 0 0 1-.86.18c-.54 0-.94-.12-1.22-.36a1.7 1.7 0 0 1-.54-1.05z" fill="#999"/>
    <path d="M10.77 18.28c.08.46.26.81.54 1.05s.68.36 1.22.36a2 2 0 0 0 .86-.18 1.33 1.33 0 0 0 .62-1.85c-.1-.17-.26-.3-.45-.4-.2-.08-.54-.2-1.03-.34-.34-.1-.55-.16-.62-.2a.62.62 0 0 1-.26-.19.43.43 0 0 1-.09-.26.5.5 0 0 1 .2-.4c.14-.11.37-.17.69-.17.27 0 .48.06.63.2.15.12.23.3.27.52l.67-.1a1.65 1.65 0 0 0-.23-.68c-.12-.17-.3-.3-.54-.4a2.23 2.23 0 0 0-1.45-.06c-.19.06-.33.13-.44.21a1.19 1.19 0 0 0-.47.97c0 .21.05.4.15.59.1.17.25.31.45.42.2.1.55.22 1.06.35.38.1.62.19.71.26.14.1.2.23.2.4 0 .18-.07.35-.23.49-.15.14-.39.2-.7.2-.32 0-.57-.07-.75-.23a1.06 1.06 0 0 1-.32-.68l-.69.12zm-.26-.2l1.15-.19.03.24c.03.24.11.42.25.54.13.11.32.17.58.17.27 0 .45-.05.56-.15.1-.1.16-.2.16-.32 0-.09-.04-.15-.1-.2a2.97 2.97 0 0 0-.65-.22 6.3 6.3 0 0 1-1.1-.38c-.24-.12-.42-.29-.55-.5a1.4 1.4 0 0 1-.18-.71 1.43 1.43 0 0 1 1.07-1.4 2.45 2.45 0 0 1 1.6.07c.28.1.5.27.64.48.14.2.23.46.28.78l.04.23-1.14.16-.03-.23a.59.59 0 0 0-.2-.38c-.1-.09-.25-.14-.47-.14-.27 0-.45.05-.54.12-.08.07-.12.14-.12.22 0 .05.01.08.04.13.03.04.09.08.17.11.06.03.26.1.59.19.5.14.85.26 1.06.36.23.1.42.26.55.47.14.21.2.47.2.77a1.55 1.55 0 0 1-.91 1.42c-.29.13-.6.2-.96.2-.59 0-1.04-.13-1.37-.41a1.92 1.92 0 0 1-.61-1.2l-.04-.22z" fill="#2B2B2B" fill-rule="nonzero"/>
    <path d="M10.03 14.9h.57c.2 0 .37.16.37.36v4.32c0 .2-.17.36-.37.36h-.57a.36.36 0 0 1-.36-.36v-4.32c0-.2.16-.37.36-.37z" fill="#999"/>
    <path d="M9.99 15.12c-.07 0-.13.07-.13.15v4.3c0 .08.06.14.13.14h.65c.07 0 .13-.06.13-.15v-4.29c0-.08-.06-.15-.13-.15H10zm0-.23h.65c.18 0 .33.17.33.38v4.3c0 .2-.15.37-.33.37H10c-.18 0-.32-.17-.32-.38v-4.29c0-.2.14-.38.32-.38z" fill="#2B2B2B" fill-rule="nonzero"/>
    <path d="M12.92 23.2C6.4 23.2 1.1 18.19 1.1 11.98 1.1 5.76 6.4.73 12.9.73c6.53 0 11.82 5.03 11.82 11.24 0 6.2-5.3 11.24-11.81 11.24zm0-.38c6.3 0 11.41-4.86 11.41-10.85 0-6-5.1-10.86-11.41-10.86-6.3 0-11.42 4.86-11.42 10.86 0 5.99 5.11 10.85 11.42 10.85z" fill="#2B2B2B" fill-rule="nonzero"/>
    <g fill="#2B2B2B">
      <path d="M23.12 10.1l.02.06-.35.22-.05-.07c.1-.09.28-.22.19-.55-.05-.21-.36-.3-.4-.06v.44c.04.28-.2.61-.53.4a.6.6 0 0 1-.2-.7h-.13l-.02-.07.42-.22.04.07a.7.7 0 0 0-.17.2.46.46 0 0 0 .1.6c.05.03.25.1.28-.07.03-.08.04-.24.02-.49 0-.13.04-.53.4-.44.34.12.32.46.32.53 0 .05-.01.1-.03.14l.1.01zM22.18 7.82l.2.46-.07.03c-.03-.11-.1-.14-.18-.1l-.54.24c-.1.04-.36.2-.23.5.11.22.25.22.31.22s.13-.01.23-.06l.52-.23c.1-.02.12-.09.06-.2l.07-.03.18.4-.07.02c-.04-.11-.1-.14-.19-.09l-.55.25c-.1.04-.19.06-.27.05-.08 0-.3-.03-.4-.31-.11-.28-.02-.44.03-.5a.48.48 0 0 1 .2-.16l.58-.26c.1-.02.12-.09.05-.2l.07-.03zM21.74 7c.07.1.1.21.12.32a.65.65 0 0 1-.3.6.64.64 0 0 1-.93-.15.63.63 0 0 1-.1-.55.67.67 0 0 1 .27-.38.63.63 0 0 1 .67-.06c.1.05.2.13.27.23zm-.08.07c.05.07.08.15.08.22s-.02.15-.06.22a.77.77 0 0 1-.23.24c-.1.07-.19.11-.3.13a.48.48 0 0 1-.26-.02.4.4 0 0 1-.18-.15.42.42 0 0 1-.08-.23c0-.08.02-.16.06-.25a.7.7 0 0 1 .22-.22c.1-.07.2-.12.3-.13.1-.02.18-.01.25.02.08.03.14.09.2.17zM20.14 4.96l.27.3-.5.98 1-.41.27.3-.06.04c-.07-.08-.14-.1-.2-.03l-.64.57c-.1.06-.1.14 0 .23l-.06.05-.33-.37.05-.05c.06.07.13.08.2.03l.72-.64-1.15.47-.06-.07.56-1.08-.68.61c-.1.09-.1.16 0 .23l-.05.05-.3-.34.05-.05c.06.1.14.1.23.02l.63-.57c.08-.06.08-.13-.01-.22l.06-.05zM18.97 4.07l.39.3-.05.06c-.1-.08-.14-.07-.15.02l-.08.53.52-.22c.09-.02.08-.07-.03-.14l.05-.06.32.24-.05.06c-.03-.02-.09-.07-.19-.02l-.63.26-.2.26c-.09.1 0 .17.05.2l-.04.06-.4-.3.04-.06c.1.08.16.08.2-.01l.18-.23.1-.7c0-.12-.04-.15-.08-.18l.05-.07zM17.61 3.23l.35.18.09 1.13.34-.66c.05-.09.02-.16-.08-.2l.04-.08.38.2-.03.07c-.1-.05-.17-.02-.21.06l-.49.95-.1-.05-.1-1.36-.42.82c-.07.13.03.2.07.22l-.04.07-.39-.2.04-.07c.1.06.17.04.22-.07l.37-.73c.06-.09.04-.16-.08-.21l.04-.07zM14.39 2.32l.39.05.47 1.04.09-.74c.02-.1-.03-.16-.14-.17v-.08l.44.06-.01.07c-.1 0-.17.04-.18.14l-.13 1.05-.11-.01-.57-1.25-.1.92c-.03.15.09.18.13.19v.07l-.44-.05v-.08c.12.02.19-.03.19-.14l.1-.82c.01-.1-.04-.16-.14-.17v-.08zM12.75 2.23h.4l.58.97v-.74c.01-.1-.04-.15-.16-.15v-.08h.44v.08c-.11 0-.16.05-.16.15v1.07h-.12l-.7-1.17v.93c-.01.15.1.16.16.16v.08h-.44v-.08c.11 0 .17-.05.16-.16v-.83c0-.1-.06-.15-.16-.15v-.08zM16.52 2.76c.11.02.21.06.3.13a.65.65 0 0 1 .23.63.64.64 0 0 1-.76.57.63.63 0 0 1-.47-.31.67.67 0 0 1-.08-.46.68.68 0 0 1 .14-.33c.07-.09.16-.16.28-.2a.7.7 0 0 1 .36-.03zm-.02.1a.45.45 0 0 0-.26.03.47.47 0 0 0-.2.16.73.73 0 0 0-.1.3.7.7 0 0 0 0 .32c.04.1.08.16.14.22.06.05.14.09.22.1a.4.4 0 0 0 .24-.03c.07-.03.14-.1.2-.18.05-.08.09-.18.1-.3a.77.77 0 0 0 0-.32.41.41 0 0 0-.12-.2.41.41 0 0 0-.22-.1zM11.83 2.23H12l.4 1.09c.03.1.09.14.16.13v.08h-.46v-.08c.02 0 .16.03.1-.15l-.08-.25h-.47l-.1.28c-.05.13.1.12.11.12v.08h-.39v-.08c.04 0 .12-.02.17-.14l.4-1.08zm-.16.73h.4l-.2-.56-.2.56zM7.86 3.21l.6-.3a.8.8 0 0 1 .28-.08.3.3 0 0 1 .3.17c.1.16 0 .3-.04.36a.63.63 0 0 1-.21.15l.5.23c.08.04.17.05.25 0l.03.08-.26.13-.7-.35-.15.07.17.36c.04.08.11.1.2.06l.04.07-.44.22-.04-.07c.1-.05.13-.13.08-.22l-.37-.77c-.05-.07-.11-.08-.2-.04l-.04-.07zm.35-.05l.2.43.25-.11a.74.74 0 0 0 .16-.1.23.23 0 0 0 .08-.13c0-.05 0-.1-.03-.15A.25.25 0 0 0 8.8 3a.2.2 0 0 0-.12-.04c-.04 0-.1.02-.16.05l-.3.15zM6.58 4.01l.86-.6.3.2-.05.08c-.05-.04-.18-.2-.52.03l-.26.18.27.39.13-.09c.13-.05.14-.16.03-.31l.08-.05.32.46-.07.05c-.09-.13-.2-.15-.3-.08l-.13.1.24.34c.04.06.14.03.3-.08.35-.21.25-.5.24-.58l.08-.02.12.41-.9.63-.05-.06c.1-.07.12-.13.07-.2l-.52-.73c-.03-.05-.08-.1-.2 0L6.58 4zM5.54 4.9l.37-.33.06.06c-.1.08-.1.15-.05.2l.6.66.05.06c.01 0 .26-.17.32-.3.05-.12 0-.28-.03-.37l.08-.03.16.4-.7.62-.05-.06c.08-.09.1-.15.04-.2l-.59-.66c-.06-.07-.13-.06-.2.02l-.06-.06zM5.64 5.85zm0 0a.6.6 0 0 1 .14-.09c.05-.02.17-.06.32.05s.11.26.1.32a.5.5 0 0 1-.08.19l-.14.18-.42.49-.06-.05c.07-.09.08-.15.02-.2l-.68-.59c-.06-.05-.13-.04-.2.04l-.06-.05.4-.47.22-.22c.07-.05.28-.1.4 0 .1.07.1.21.09.27 0 .04-.02.08-.05.13zm-.76.1l.35.31.16-.18.14-.18a.28.28 0 0 0 .03-.17c0-.05-.04-.1-.08-.14a.2.2 0 0 0-.14-.05c-.04 0-.09.02-.13.05l-.15.15-.18.21zm.42.37l.32.28.06.05.04-.01.06-.06.09-.1.16-.22c.02-.05.03-.1.02-.16 0-.06-.04-.1-.08-.15a.23.23 0 0 0-.14-.06c-.05 0-.1.01-.15.04-.05.03-.12.1-.21.2l-.17.2zM2.97 10.05v-.07l.4-.1.03.09a.66.66 0 0 0-.28.18.4.4 0 0 0-.08.25c0 .13.05.24.16.33.1.1.23.14.39.14.34.03.77-.26.49-.76-.05-.1-.32-.15-.39 0l-.01.13H3.6l.01-.53h.08c0 .1.03.16.13.16l.45.01v.1l-.12.04c.04.05.07.1.09.17.03.09.04.17.04.26 0 .17-.1.64-.68.62-.58-.01-.67-.47-.66-.65 0-.04.02-.25.11-.34l-.08-.03z"/>
    </g>
    <g fill="#2B2B2B">
      <path d="M9.64 10.64l2.12.03.02-1.16h-.82v-.8h1.98v3.09H7.46l3.13-7.36h2.35v3.12h-1.18l-.04-1.91zM15.63 4.47l3.06 7.34h-1.81l-1-3.1h-1l.01 3.1h-1.5V4.47h2.24zM14.89 6v1.55h.78L15.28 6h-.4z"/>
    </g>
    <g fill="#2B2B2B">
      <path d="M19.87 13.82a1.21 1.21 0 1 1 0-2.43 1.21 1.21 0 0 1 0 2.43zm0-.15a1.06 1.06 0 1 0 0-2.13 1.06 1.06 0 0 0 0 2.13z" fill-rule="nonzero"/>
      <path d="M19.43 13.1v-1h.44a.6.6 0 0 1 .2.03c.05.02.16.05.16.25 0 .24-.19.26-.28.27l.08.05.1.13.18.28h-.17l-.22-.35c-.06-.08-.18-.11-.36-.1v.45h-.13zm.13-.55h.29l.14-.02a.15.15 0 0 0 .08-.06.16.16 0 0 0 .02-.1.15.15 0 0 0-.05-.11c-.03-.03-.09-.05-.16-.05h-.32v.34z"/>
    </g>
    <path d="M8.63 20.92c-.15-.05-.14-.2-.12-.24.01-.03.05-.09.16-.1.24-.02.33.03.33.03l.03-.04c.08-.1.01-.25-.17-.2l-.04.04c0 .01-.13 0-.14 0 .15-.25.51-.1.5.1 0 .04-.17.42-.18.44-.04.06.1.1.07.15-.23-.02-.2-.18-.19-.2-.04.04-.1.1-.25.02zm.35-.25l-.05-.01a.95.95 0 0 0-.08-.02h-.08a.14.14 0 0 0-.11.09c-.02.03-.03.06-.02.1a.1.1 0 0 0 .06.05l.06.02c.02 0 .05 0 .07-.02a.2.2 0 0 0 .1-.1l.05-.1zm.58.6c0 .02-.09.05-.21.01s-.09-.2-.07-.23l.17-.41-.09-.04c.02-.02.03-.04.04-.03.02 0 .14.05.2-.09 0 0 .03-.01.07 0l-.07.15.17.07c0 .03-.04.06-.05.05l-.15-.06-.15.37c-.06.1-.02.17 0 .17.03.02.14-.01.14.03zm-3.28-1.82c-.01.02-.1.03-.21-.05-.1-.07-.03-.21 0-.24l.29-.34-.08-.06.05-.03c.02.02.12.1.21-.02.02 0 .04 0 .07.02l-.1.12.14.12-.07.04-.12-.1-.26.3c-.09.08-.06.16-.04.17.02.03.14.02.12.07zm-1.23-1.1c-.01.02.02.09.04.12.01 0 0 .04-.02.05a11.8 11.8 0 0 0-.3-.24l.03-.03c.04.02.12.03.13.01l.5-.65c0-.02-.02-.1-.05-.12l.02-.05.31.23-.04.04c-.04-.02-.11-.03-.13-.01l-.49.65zm3.24 2.3c-.01.01.06.11.05.12l-.01.02a8.97 8.97 0 0 0-.3-.17c0-.02.01-.02.02-.03h.12l.17-.28c0-.02.1-.15-.01-.22a.3.3 0 0 0-.3.07l-.14.25c-.01.01.03.08.04.1v.04a8.88 8.88 0 0 0-.3-.18l.03-.03h.11l.25-.44c0-.02-.02-.04-.05-.06v-.05l.22.1-.07.14c.06-.02.2-.06.31 0 .14.07.1.23.06.28l-.2.34zM5.8 19c0 .01.05.12.04.13l-.02.02-.26-.22.01-.02s.12.02.13 0l.2-.24c.01-.02.12-.13.02-.22a.3.3 0 0 0-.3.03l-.18.23c-.01.01.02.08.03.1.01 0 0 .03-.02.04l-.26-.22s.03-.03.04-.02c.02 0 .1.03.1.01l.31-.4c0-.02-.01-.04-.04-.07 0-.01 0-.04.02-.04l.2.12-.1.13c.07-.01.22-.02.31.05.13.08.06.24.02.29l-.25.3zm1.13.77h.02l.01.05a.46.46 0 0 1-.07.02h-.08c-.03 0-.06 0-.1-.02a.43.43 0 0 1-.18-.14.28.28 0 0 1-.05-.1v-.13l.06-.15a.39.39 0 0 1 .38-.16l.12.04c.08.06.12.13.13.2 0 .07-.02.15-.07.23h-.02l-.4-.25a.36.36 0 0 0-.05.11.28.28 0 0 0 0 .1.23.23 0 0 0 .1.17c.03.02.06.04.1.04h.1zm.05-.55a.15.15 0 0 0-.14-.02.28.28 0 0 0-.12.11l.26.16H7a.23.23 0 0 0 .04-.13c0-.02 0-.04-.02-.07a.13.13 0 0 0-.05-.05zm.87.6c-.05.05-.11 0-.14 0-.03-.1-.19-.06-.2-.04-.02 0-.09.1-.21.29-.02.02-.01.04 0 .06l.08.11-.02.02-.33-.22V20c.01 0 .13.01.14 0l.24-.35c.08-.12-.05-.13 0-.2l.2.1s-.01.05-.06.13a.7.7 0 0 1 .14-.02c.05 0 .21.05.16.15zm2.44 1.4c.06-.17.16-.31.44-.23.28.07.24.26.2.44-.04.2-.15.4-.44.3-.29-.08-.27-.33-.2-.5zm.15 0a.6.6 0 0 0-.04.12l-.01.12c0 .04.01.07.03.1.02.04.04.06.08.08.05.02.1.02.15 0a.26.26 0 0 0 .12-.14.69.69 0 0 0 .04-.11.46.46 0 0 0 .01-.13.27.27 0 0 0-.03-.1.16.16 0 0 0-.08-.08.18.18 0 0 0-.15 0c-.05.01-.09.07-.12.14zm.98.63l-.38-.06.12-.1c.03 0 .17-1.03.15-1.04-.01-.02-.11-.09-.1-.1l.28.04-.17 1.13c0 .01.1.11.1.13zm-1.74-.43s.12-.03.13-.05l.16-.37c.03-.07-.08-.1-.04-.16l.2.06-.2.52c-.01.02.04.12.03.12l-.28-.12zm.47-.85c.04-.02.1 0 .12.05.01.04-.01.1-.05.11-.04.02-.1 0-.12-.05-.01-.04.01-.1.05-.11zM15.06 21.48c.03-.14.1-.43.09-.45 0-.04-.09-.01-.1-.07l.26-.05-.1.15-.13.61-.03.01-.38-.57c-.03-.05-.1.01-.11-.08l.33-.05c.01.06-.07.08-.07.09l.24.4zm-.57-.35c-.02.07-.09.08-.11.1-.1-.07-.19.06-.2.08l.02.36c0 .02.02.04.04.05l.13.04v.02l-.4.03v-.02c0-.02.1-.07.1-.09l-.03-.41c-.01-.16-.11-.08-.12-.16l.22-.05s.02.04.03.13a.7.7 0 0 1 .1-.1c.03-.03.2-.09.22.02zm-1.52-.1a.06.06 0 0 1-.07-.03c-.02-.07-.06-.17-.24-.18-.16-.01-.2.1-.21.13-.06.19.4.3.47.4.04.04.07.1.06.18 0 .05-.02.26-.2.3-.33.06-.46-.07-.5-.1l-.02-.25c.09 0 .14.07.15.2.04.03.11.05.22.05.16 0 .29-.17.15-.3l-.16-.08c-.05-.02-.38-.16-.27-.46.09-.22.41-.15.45-.14l.16.06.01.21zm3.13-.1c.04.08.09.14.15.17.23.11.29-.16.35-.09-.09.26-.31.28-.43.2a.4.4 0 0 1-.17-.18c-.08-.22.01-.35.04-.38.17-.17.39-.04.4-.02l-.09.07c-.23-.1-.28.13-.25.22zm1.12-.27c.09.01-.04.21-.15.27-.26.1-.4-.12-.42-.17-.12-.2-.02-.38.13-.45.19-.09.33.07.37.15l-.39.22c.04.09.29.33.46-.02zm-.44-.29a.14.14 0 0 0-.08.1c0 .05 0 .1.03.16l.25-.14c.02 0 .02-.01.01-.02a.22.22 0 0 0-.08-.1.15.15 0 0 0-.06-.01l-.07.01zm-3.03 1.32c.07.1-.14.17-.26.16-.28-.03-.3-.3-.3-.34 0-.25.18-.35.34-.34.21.02.26.22.25.31h-.44c-.01.1.09.43.41.2zm-.24-.46a.14.14 0 0 0-.12.05.26.26 0 0 0-.05.15h.28c.02 0 .03 0 .03-.02a.22.22 0 0 0-.03-.12.15.15 0 0 0-.05-.04.12.12 0 0 0-.06-.02zm2.1.3l.08-.1-.1-.4c-.03-.08-.13-.03-.14-.1l.2-.08.16.54.1.07-.3.08zm-.15-.96c.02-.03.08-.05.12-.03.04.03.05.09.03.12-.02.04-.08.06-.12.04-.03-.03-.05-.09-.03-.13zM17.82 20.14c-.04-.06-.24-.43.11-.68.3-.23.53-.04.58 0 .05.04.1.09.13.15.04.06.25.42-.15.7-.4.27-.63-.1-.67-.17zm.66.08a.3.3 0 0 0 .13-.34.43.43 0 0 0-.06-.13.84.84 0 0 0-.12-.16.5.5 0 0 0-.15-.1.33.33 0 0 0-.15-.02.33.33 0 0 0-.3.25v.13l.07.14.13.16.15.1.15.03a.3.3 0 0 0 .15-.06zm.66-1.28l-.07.06c-.04-.05.02-.1.02-.12-.03-.04-.17-.18-.17-.29 0-.14.12-.2.15-.22.02-.01.12-.05.16-.01 0 0 0 .1-.07.1a.26.26 0 0 0-.07-.01c-.02 0-.17.08-.03.22l.13.14.13-.12c.01.02.05.04.02.07l-.1.1.3.33c.05.06.12-.01.16-.04l.04.02-.27.25s-.06-.05 0-.12l-.33-.36zm-.47.39l-.06.06c-.05-.05 0-.11.01-.12-.03-.04-.16-.18-.16-.3 0-.14.12-.2.14-.22.02 0 .12-.04.16 0 0 0 0 .09-.07.1a.26.26 0 0 0-.07-.02c-.02 0-.16.09-.03.23l.13.14.13-.12c.01.01.05.04.02.06l-.1.1.3.34c.05.06.12-.02.17-.05l.04.03-.28.25s-.06-.05 0-.13l-.33-.35zm1.22-.28s.02-.12.01-.13l-.26-.32c-.05-.06-.12.03-.16-.03l.14-.16c.01 0 .14.14.38.43 0 0 .12.01.11.02l-.22.19zm-.55-.8c0-.05.05-.09.1-.08.04 0 .08.05.07.1 0 .03-.05.07-.1.07-.04 0-.07-.05-.07-.1zm.73.16c.06.07.13.12.2.13.25.04.22-.24.3-.2 0 .29-.22.36-.34.33a.4.4 0 0 1-.23-.13c-.14-.19-.06-.34-.05-.37.12-.22.34-.16.35-.14l-.06.1c-.25-.03-.22.22-.17.28zm.87-.62c.09-.01.03.22-.06.3-.21.18-.41.02-.45-.02-.18-.17-.14-.36-.02-.47.16-.14.34-.04.4.02l-.3.33c.06.08.37.23.43-.16zm-.5-.14a.14.14 0 0 0-.05.13c.01.04.03.09.08.13l.2-.2v-.03a.22.22 0 0 0-.11-.06h-.06a.12.12 0 0 0-.06.03zM10.1 2.31l.05-.02.22.35-.07.05c-.09-.09-.22-.27-.55-.18-.21.05-.3.36-.06.4h.44c.28-.04.61.2.4.52a.6.6 0 0 1-.7.2v.13l-.07.02-.22-.41.07-.05a.7.7 0 0 0 .2.17c.06.04.33.19.6-.09.03-.06.09-.25-.08-.29a1.38 1.38 0 0 0-.48-.02c-.13 0-.53-.03-.44-.4.12-.33.46-.31.53-.31.05 0 .1.01.14.03l.01-.1zM3.5 7.62l.25-.34 1.05.3-.61-.9.23-.33.07.05c-.07.1-.07.16 0 .2l.7.5c.08.09.15.08.22-.03l.06.04-.29.4-.06-.04c.06-.07.06-.14-.01-.2l-.77-.57.69 1.03-.06.07-1.17-.33.74.55c.1.07.18.05.22-.06l.06.05-.27.37-.06-.05c.09-.08.08-.15-.02-.23l-.69-.5c-.07-.07-.15-.05-.21.06l-.07-.04zM3.07 8.83l.03-.15 1.15-.13c.1 0 .16-.05.17-.12l.08.02-.11.45-.08-.02c0-.02.07-.15-.12-.14l-.26.02-.12.46.25.16c.12.09.14-.07.15-.08l.07.02-.1.38-.07-.02c.01-.04.01-.12-.1-.2l-.94-.65zm.66.33l.1-.39-.6.06.5.33z" fill="#2B2B2B"/>
  </g>
</svg>
